<svg id="eLg7ZIzxftd1" xmlns="http://www.w3.org/2000/svg" xmlns:xlink="http://www.w3.org/1999/xlink" viewBox="0 0 700 700" shape-rendering="geometricPrecision" text-rendering="geometricPrecision" project-id="de93d9a3d39a4f9d89a2bd0b85fb300b" export-id="3647bdb9e51f450091ed3f1122c17892" cached="false"><g transform="translate(6.158875 1.184807)"><path d="M127.261054,223.041016L343.434722,96.26892L560.108883,223.041016l1.196368,46.953547h-77.598754l-141.772558-88.92814q-141.935362,88.528455-140.626971,88.92814q1.308391,1.308392,0,162.074313L343.85402,516.257017q126.925277-77.001009,139.852477-84.188141q2.616783,0,77.598754,0-1.308392,35.418615-1.196368,37.771106Q342.657652,596.526803,343.434722,601.361444L126.377014,474.674623l.88404-251.633607Z" transform="translate(.000003 0.000006)" fill="#2c52ff" stroke-width="1.4"/><path d="M419.615054,388.4013v-144.093237l51.164242,30.402818v147.800784L343.844998,496.012857L216.92874,422.511665v-147.800784l51.740983-30.402818q-.059532,144.82957,0,144.093237c.059532.059533,75.175275,43.587491,75.175275,43.667581" transform="translate(.000004 0.000001)" fill="#353535" stroke-width="1.4"/><path d="M275.829734,378.322624l-.409938-79.469255l68.014925-41.291237l68.375542,41.291237v79.469255L343.854019,418.30029l-68.024285-39.977666Z" transform="translate(.000004 0.400735)" fill="#2c52ff" stroke-width="1.4"/></g></svg>
